<svg width="72" height="72" version="1.1" viewBox="0 0 72 72" xmlns="http://www.w3.org/2000/svg">
<path d="M36.02 9.88001C30.8503 9.87606 25.7954 11.4046 21.495 14.2723C17.1946 17.14 13.8417 21.218 11.8606 25.9905C9.87948 30.7629 9.35908 36.0154 10.3652 41.0835C11.3714 46.1516 13.8589 50.8076 17.513 54.4626C21.1672 58.1175 25.8239 60.6072 30.8941 61.6166C35.9642 62.6261 41.22 62.11 45.9966 60.1337C50.7733 58.1573 54.8561 54.8094 57.7287 50.5136C60.6013 46.2177 62.1345 41.1669 62.1345 36C62.1266 29.0785 59.3733 22.4424 54.4782 17.5462C49.5831 12.65 42.9454 9.89324 36.02 9.88001ZM42.2935 38.26L35.3497 46.54C35.1136 46.8192 34.8194 47.0435 34.4876 47.1973C34.1557 47.351 33.7943 47.4304 33.4286 47.43C32.8429 47.4332 32.2753 47.2275 31.8277 46.85C31.5751 46.6399 31.3666 46.3819 31.2142 46.091C31.0617 45.8 30.9684 45.4817 30.9396 45.1545C30.9108 44.8273 30.947 44.4977 31.0462 44.1846C31.1454 43.8714 31.3055 43.581 31.5175 43.33L37.6309 36L31.4975 28.67C31.0971 28.1593 30.911 27.5131 30.9786 26.8678C31.0461 26.2225 31.3621 25.6287 31.8596 25.2119C32.3572 24.7952 32.9973 24.5881 33.6448 24.6344C34.2924 24.6806 34.8965 24.9767 35.3296 25.46L42.2735 33.74C42.8025 34.3744 43.0923 35.1742 43.0923 36C43.0923 36.8259 42.8025 37.6256 42.2735 38.26H42.2935Z"/>
</svg>
