<svg width="72" height="72" version="1.1" viewBox="0 0 72 72" xmlns="http://www.w3.org/2000/svg">
<path d="M36.02 9.88001C30.8503 9.87606 25.7954 11.4046 21.495 14.2723C17.1946 17.14 13.8417 21.218 11.8606 25.9905C9.87948 30.7629 9.35908 36.0154 10.3652 41.0835C11.3714 46.1516 13.8589 50.8076 17.513 54.4626C21.1672 58.1175 25.8239 60.6072 30.8941 61.6166C35.9642 62.6261 41.22 62.11 45.9966 60.1337C50.7733 58.1573 54.8561 54.8094 57.7287 50.5136C60.6013 46.2177 62.1345 41.1669 62.1345 36C62.1266 29.0785 59.3733 22.4424 54.4782 17.5462C49.5831 12.65 42.9454 9.89324 36.02 9.88001ZM40.5225 43.33C40.7345 43.581 40.8947 43.8714 40.9939 44.1846C41.0931 44.4977 41.1293 44.8273 41.1005 45.1545C41.0716 45.4817 40.9783 45.8 40.8259 46.091C40.6735 46.3819 40.465 46.6399 40.2123 46.85C39.7648 47.2275 39.1971 47.4332 38.6115 47.43C38.2455 47.4318 37.8836 47.353 37.5516 47.1991C37.2196 47.0453 36.9255 46.8203 36.6904 46.54L29.7465 38.26C29.2175 37.6256 28.9278 36.8259 28.9278 36C28.9278 35.1742 29.2175 34.3744 29.7465 33.74L36.6904 25.46C36.8973 25.1962 37.1551 24.9766 37.4486 24.8143C37.7422 24.6521 38.0653 24.5505 38.3989 24.5156C38.7325 24.4807 39.0697 24.5132 39.3904 24.6112C39.7112 24.7092 40.009 24.8707 40.266 25.086C40.5231 25.3013 40.7342 25.5661 40.8868 25.8647C41.0394 26.1632 41.1303 26.4893 41.1543 26.8237C41.1782 27.158 41.1346 27.4938 41.0261 27.811C40.9175 28.1282 40.7463 28.4203 40.5225 28.67L34.3591 36L40.5225 43.33Z"/>
</svg>
