<svg width="20" height="20" viewBox="0 0 20 20" fill="none" xmlns="http://www.w3.org/2000/svg">
<path d="M9.99994 13.1639C9.67248 13.1635 9.35568 13.0474 9.1055 12.8361L3.41105 8.05556C3.2768 7.93531 3.19456 7.76758 3.1817 7.58782C3.16884 7.40805 3.22638 7.23032 3.34215 7.0922C3.45791 6.95407 3.62285 6.86636 3.80209 6.8476C3.98134 6.82884 4.16086 6.8805 4.30272 6.99167L9.99994 11.7722L15.6972 7C15.7646 6.93014 15.846 6.87521 15.936 6.83876C16.0261 6.80231 16.1227 6.78515 16.2198 6.78838C16.3169 6.79161 16.4122 6.81517 16.4996 6.85753C16.587 6.89989 16.6645 6.96011 16.7272 7.03431C16.7898 7.1085 16.8363 7.19501 16.8634 7.28826C16.8906 7.38151 16.8979 7.47941 16.8848 7.57566C16.8718 7.6719 16.8387 7.76434 16.7877 7.847C16.7367 7.92966 16.669 8.00071 16.5888 8.05556L10.8944 12.8361C10.6442 13.0474 10.3274 13.1635 9.99994 13.1639Z" fill="#8CA0B3"/>
</svg>
