<svg width="72" height="72" viewBox="0 0 72 72" fill="none" xmlns="http://www.w3.org/2000/svg">
<path fill-rule="evenodd" clip-rule="evenodd" d="M21.4885 14.282C25.7839 11.4119 30.834 9.88 36 9.88C42.925 9.88795 49.5641 12.6424 54.4609 17.5391C59.3576 22.4359 62.1121 29.075 62.12 36C62.12 41.1661 60.5881 46.2161 57.718 50.5115C54.8479 54.8069 50.7685 58.1548 45.9957 60.1317C41.2229 62.1087 35.971 62.626 30.9043 61.6181C25.8375 60.6103 21.1833 58.1226 17.5304 54.4696C13.8774 50.8167 11.3898 46.1625 10.3819 41.0958C9.37406 36.029 9.89132 30.7771 11.8683 26.0043C13.8452 21.2315 17.1931 17.1521 21.4885 14.282ZM23.7108 54.3921C27.3484 56.8227 31.6251 58.12 36 58.12C41.865 58.1147 47.4882 55.7825 51.6354 51.6354C55.7825 47.4882 58.1147 41.865 58.12 36C58.12 31.6251 56.8227 27.3484 54.3921 23.7108C51.9615 20.0732 48.5069 17.238 44.465 15.5638C40.4231 13.8896 35.9755 13.4515 31.6846 14.305C27.3938 15.1585 23.4524 17.2653 20.3588 20.3588C17.2653 23.4523 15.1586 27.3937 14.305 31.6846C13.4515 35.9755 13.8896 40.4231 15.5638 44.465C17.238 48.5069 20.0732 51.9615 23.7108 54.3921ZM31.83 42L46.23 28.49C46.7185 28.072 47.3493 27.8583 47.9912 27.8932C48.6332 27.9282 49.2371 28.2091 49.6773 28.6777C50.1175 29.1462 50.3603 29.7664 50.3552 30.4093C50.3502 31.0522 50.0976 31.6684 49.65 32.13L34.99 45.89C34.1331 46.6799 33.0104 47.1184 31.845 47.1184C30.6796 47.1184 29.5569 46.6799 28.7 45.89L22.19 39.89C21.7033 39.4391 21.4157 38.8134 21.3904 38.1504C21.3651 37.4875 21.6041 36.8416 22.055 36.355C22.5059 35.8683 23.1316 35.5807 23.7945 35.5553C24.4575 35.53 25.1033 35.7691 25.59 36.22L31.83 42Z" />
</svg>
