<svg width="72" height="72" viewBox="0 0 72 72" fill="none" xmlns="http://www.w3.org/2000/svg">
<path fill-rule="evenodd" clip-rule="evenodd" d="M21.4885 57.718C25.7839 60.5881 30.834 62.12 36 62.12C42.925 62.1121 49.5641 59.3576 54.4609 54.4609C59.3576 49.5641 62.1121 42.925 62.12 36C62.12 30.834 60.5881 25.7839 57.718 21.4885C54.8479 17.1931 50.7685 13.8452 45.9957 11.8683C41.2229 9.89132 35.971 9.37406 30.9043 10.3819C25.8375 11.3898 21.1833 13.8774 17.5304 17.5304C13.8774 21.1833 11.3898 25.8375 10.3819 30.9043C9.37406 35.971 9.89132 41.2229 11.8683 45.9957C13.8452 50.7685 17.1931 54.8479 21.4885 57.718ZM23.7108 17.6079C27.3484 15.1773 31.6251 13.88 36 13.88C41.865 13.8853 47.4882 16.2175 51.6354 20.3647C55.7825 24.5118 58.1147 30.1351 58.12 36C58.12 40.3749 56.8227 44.6516 54.3921 48.2892C51.9615 51.9268 48.5069 54.762 44.465 56.4362C40.4231 58.1104 35.9755 58.5485 31.6846 57.695C27.3938 56.8415 23.4524 54.7348 20.3588 51.6412C17.2653 48.5477 15.1586 44.6063 14.305 40.3154C13.4515 36.0246 13.8896 31.577 15.5638 27.5351C17.238 23.4932 20.0732 20.0385 23.7108 17.6079ZM40.3021 46.2019C40.5994 46.3246 40.9177 46.3884 41.2393 46.39C41.2392 46.39 41.2391 46.39 41.239 46.39H41.2428C41.2416 46.39 41.2404 46.39 41.2393 46.39C41.7312 46.389 42.2119 46.243 42.6213 45.9701C43.0332 45.6955 43.3544 45.3047 43.5439 44.8473C43.7335 44.3899 43.7831 43.8866 43.6862 43.401C43.5894 42.9155 43.3506 42.4696 43 42.12L37.4 36.5V26C37.4 25.337 37.1366 24.7011 36.6678 24.2322C36.1989 23.7634 35.5631 23.5 34.9 23.5C34.237 23.5 33.6011 23.7634 33.1323 24.2322C32.6634 24.7011 32.4 25.337 32.4 26V37.53C32.4007 37.8592 32.4665 38.1851 32.5935 38.4888C32.7205 38.7926 32.9062 39.0682 33.14 39.3L39.49 45.66C39.7223 45.8925 39.9983 46.0766 40.3021 46.2019Z" fill="black"/>
</svg>
