<svg width="72" height="72" viewBox="0 0 72 72" fill="none" xmlns="http://www.w3.org/2000/svg">
<path fill-rule="evenodd" clip-rule="evenodd" d="M21.4885 14.282C25.7839 11.4119 30.8339 9.88 36 9.88C42.925 9.88795 49.5641 12.6424 54.4608 17.5391C59.3576 22.4359 62.112 29.075 62.12 36C62.12 41.1661 60.5881 46.2161 57.718 50.5115C54.8479 54.8069 50.7685 58.1548 45.9957 60.1317C41.2229 62.1087 35.971 62.626 30.9042 61.6181C25.8374 60.6103 21.1833 58.1226 17.5304 54.4696C13.8774 50.8167 11.3897 46.1625 10.3819 41.0958C9.37403 36.029 9.89129 30.7771 11.8683 26.0043C13.8452 21.2315 17.1931 17.1521 21.4885 14.282ZM23.7108 54.3921C27.3484 56.8227 31.6251 58.12 36 58.12C41.865 58.1147 47.4882 55.7825 51.6353 51.6354C55.7825 47.4882 58.1147 41.865 58.12 36C58.12 31.6251 56.8227 27.3484 54.3921 23.7108C51.9615 20.0732 48.5068 17.238 44.4649 15.5638C40.423 13.8896 35.9754 13.4515 31.6846 14.305C27.3937 15.1585 23.4523 17.2653 20.3588 20.3588C17.2652 23.4523 15.1585 27.3937 14.305 31.6846C13.4515 35.9755 13.8896 40.4231 15.5638 44.465C17.238 48.5069 20.0732 51.9615 23.7108 54.3921ZM44.2607 26.3871C44.5636 26.513 44.8386 26.6975 45.07 26.93C45.3025 27.1614 45.487 27.4364 45.6129 27.7393C45.7388 28.0422 45.8036 28.367 45.8036 28.695C45.8036 29.023 45.7388 29.3478 45.6129 29.6507C45.487 29.9536 45.3025 30.2287 45.07 30.46L39.54 36L45.07 41.54C45.3025 41.7714 45.487 42.0464 45.6129 42.3493C45.7388 42.6522 45.8036 42.977 45.8036 43.305C45.8036 43.633 45.7388 43.9578 45.6129 44.2607C45.487 44.5636 45.3025 44.8387 45.07 45.07C44.8408 45.3044 44.567 45.4907 44.2647 45.6177C43.9625 45.7448 43.6379 45.8102 43.31 45.81C42.9808 45.8093 42.6549 45.7436 42.3512 45.6166C42.0474 45.4896 41.7718 45.3038 41.54 45.07L36 39.54L30.46 45.07C30.2282 45.3038 29.9526 45.4896 29.6488 45.6166C29.3451 45.7436 29.0192 45.8093 28.69 45.81C28.3621 45.8102 28.0375 45.7448 27.7353 45.6177C27.433 45.4907 27.1592 45.3044 26.93 45.07C26.6975 44.8387 26.513 44.5636 26.3871 44.2607C26.2612 43.9578 26.1964 43.633 26.1964 43.305C26.1964 42.977 26.2612 42.6522 26.3871 42.3493C26.513 42.0464 26.6975 41.7714 26.93 41.54L32.46 36L26.93 30.46C26.5042 29.9837 26.277 29.3625 26.2948 28.724C26.3127 28.0854 26.5744 27.4779 27.0261 27.0261C27.4778 26.5744 28.0853 26.3127 28.7239 26.2949C29.3625 26.277 29.9837 26.5043 30.46 26.93L36 32.46L41.54 26.93C41.7714 26.6975 42.0464 26.513 42.3493 26.3871C42.6522 26.2612 42.977 26.1964 43.305 26.1964C43.633 26.1964 43.9578 26.2612 44.2607 26.3871Z" />
</svg>
