<svg width="72" height="72" viewBox="0 0 72 72" fill="none" xmlns="http://www.w3.org/2000/svg">
<path d="M39.54 35.63L55.13 20C55.5145 19.5181 55.7073 18.9111 55.6715 18.2956C55.6357 17.6802 55.3737 17.0997 54.9359 16.6656C54.4982 16.2315 53.9154 15.9745 53.2997 15.944C52.684 15.9134 52.0786 16.1114 51.6 16.5L36 32.09L20.4 16.5C20.1811 16.2256 19.9069 16.0004 19.5952 15.839C19.2836 15.6776 18.9414 15.5837 18.591 15.5633C18.2406 15.5429 17.8899 15.5965 17.5616 15.7207C17.2333 15.8448 16.9348 16.0367 16.6855 16.2838C16.4363 16.5309 16.2419 16.8277 16.1149 17.155C15.988 17.4822 15.9314 17.8325 15.9488 18.183C15.9662 18.5336 16.0572 18.8766 16.216 19.1896C16.3747 19.5027 16.5975 19.7788 16.87 20L32.46 35.6L16.87 51.23C16.5229 51.5802 16.2871 52.0251 16.1922 52.509C16.0974 52.9928 16.1477 53.4939 16.3369 53.9492C16.526 54.4045 16.8456 54.7938 17.2554 55.0679C17.6653 55.3421 18.147 55.4889 18.64 55.49C18.9673 55.492 19.2916 55.4285 19.5939 55.3031C19.8962 55.1777 20.1703 54.993 20.4 54.76L36 39.16L51.6 54.76C51.8298 54.993 52.1039 55.1777 52.4062 55.3031C52.7084 55.4285 53.0328 55.492 53.36 55.49C53.8531 55.4889 54.3348 55.3421 54.7446 55.0679C55.1544 54.7938 55.474 54.4045 55.6632 53.9492C55.8524 53.4939 55.9027 52.9928 55.8078 52.509C55.713 52.0251 55.4771 51.5802 55.13 51.23L39.54 35.63Z" />
</svg>
