<svg width="512px" height="512px" version="1.1" viewBox="0 0 512 512" xmlns="http://www.w3.org/2000/svg">
	<path transform="scale(1, -1) translate(0, -512)" glyph-name="toasttrue" unicode="&#90;" d="M332 324l-119-113-32 36c-7 8-20 8-28 1-8-6-9-18-2-26l46-51c4-4 9-6 15-6 0 0 0 0 0 0 5 0 10 2 14 5l134 127c8 7 8 19 0 26-8 8-20 8-28 1m-76-287c-121 0-219 98-219 219 0 121 98 219 219 219 121 0 219-98 219-219 0-121-98-219-219-219z m0 475c-141 0-256-115-256-256 0-141 115-256 256-256 141 0 256 115 256 256 0 141-115 256-256 256z" />
</svg>
