<svg width="512px" height="512px" version="1.1" viewBox="0 0 512 512" xmlns="http://www.w3.org/2000/svg">
	<path transform="scale(1, -1) translate(0, -512)" glyph-name="info-1" unicode="&#87;" d="M281 333c0-3 0-7-2-9-1-3-3-6-5-8-2-2-4-3-7-4-3-2-6-2-10-2-7 0-12 2-17 7-4 4-7 9-7 16 0 3 1 6 2 9 1 2 3 5 5 7 2 2 5 4 8 5 3 1 6 2 9 2 4 0 7-1 10-2 3-1 5-3 7-5 2-2 4-4 5-7 2-3 2-6 2-9z m-45-187l0 128 42 0 0-128z m20-106c-119 0-216 97-216 216 0 119 97 216 216 216 119 0 216-97 216-216 0-119-97-216-216-216z m-256 216c0-141 115-256 256-256 141 0 256 115 256 256 0 141-115 256-256 256-141 0-256-115-256-256z" />
</svg>
