<svg width="72" height="72" viewBox="0 0 72 72" fill="none" xmlns="http://www.w3.org/2000/svg">
<path d="M60.42 27.2801C59.7696 26.5114 58.9593 25.894 58.0456 25.4708C57.1319 25.0476 56.1369 24.829 55.13 24.8301H48C49.81 17.7701 49.67 13.2101 47.6 10.6101C46.9727 9.83056 46.1564 9.22466 45.2286 8.85006C44.3008 8.47545 43.2926 8.34463 42.3 8.47005C40.886 8.53375 39.5438 9.11146 38.5256 10.0947C37.5073 11.078 36.8831 12.3991 36.77 13.8101C34.77 22.3301 31.33 27.3501 29.12 29.8701C28.8498 29.2722 28.4125 28.7652 27.8606 28.4103C27.3088 28.0555 26.6661 27.8678 26.01 27.8701H13.32C12.4173 27.8727 11.5526 28.2331 10.9152 28.8724C10.2779 29.5116 9.91999 30.3774 9.92 31.2801V54.0601C9.92 54.5065 10.0079 54.9487 10.1788 55.3612C10.3497 55.7737 10.6001 56.1485 10.9158 56.4642C11.2316 56.7799 11.6064 57.0304 12.0189 57.2012C12.4314 57.3721 12.8735 57.4601 13.32 57.4601H26C26.7395 57.4611 27.4594 57.2218 28.051 56.7781C28.6426 56.3343 29.074 55.7103 29.28 55.0001L29.7 55.2501C32.2674 56.7905 35.2059 57.6029 38.2 57.6001H51.47C53.2897 57.5998 55.0493 56.9483 56.4304 55.7634C57.8115 54.5786 58.723 52.9386 59 51.1401L62 32.9001C62.162 31.9048 62.1046 30.8861 61.8316 29.9153C61.5587 28.9445 61.0769 28.0451 60.42 27.2801ZM25.42 53.4601H13.92V31.8301H25.41L25.42 53.4601ZM57.05 32.1001L54.05 50.3301C53.952 50.9509 53.6349 51.5162 53.1561 51.9234C52.6774 52.3307 52.0685 52.553 51.44 52.5501H38.2C36.1086 52.5474 34.0565 51.9809 32.26 50.9101L29.41 49.2001V36.3101C31.41 35.1501 38.41 28.8501 41.69 14.7501C41.7205 14.605 41.7405 14.458 41.75 14.3101C41.82 13.5101 42.31 13.4801 42.64 13.4601C43.4 13.4101 43.57 13.6201 43.64 13.7201C43.71 13.8201 45.35 16.2801 42.36 26.2901C42.1831 26.6704 42.1052 27.0893 42.1334 27.5079C42.1617 27.9264 42.2953 28.331 42.5217 28.6842C42.7481 29.0373 43.0601 29.3275 43.4287 29.5278C43.7973 29.7282 44.2105 29.8321 44.63 29.8301H55.13C55.4102 29.8387 55.6855 29.9061 55.9379 30.028C56.1904 30.1499 56.4144 30.3235 56.5955 30.5375C56.7765 30.7516 56.9105 31.0013 56.9888 31.2705C57.0671 31.5397 57.088 31.8223 57.05 32.1001Z" />
</svg>
