<svg width="72" height="72" viewBox="0 0 72 72" fill="none" xmlns="http://www.w3.org/2000/svg">
<path d="M60.93 26.32L53.55 17.52C53.1171 17.0367 52.5133 16.7407 51.8661 16.6944C51.219 16.6481 50.5792 16.8552 50.0819 17.272C49.5846 17.6887 49.2689 18.2825 49.2013 18.9278C49.1338 19.5731 49.3198 20.2193 49.72 20.73L54.2 26.07H24.62C20.8061 26.0753 17.15 27.5934 14.4541 30.2912C11.7582 32.989 10.2426 36.6461 10.24 40.46V41C10.2479 44.8105 11.7658 48.4625 14.4612 51.1559C17.1565 53.8494 20.8095 55.3647 24.62 55.37H40.81C41.473 55.37 42.1089 55.1066 42.5778 54.6378C43.0466 54.169 43.31 53.5331 43.31 52.87C43.31 52.207 43.0466 51.5711 42.5778 51.1023C42.1089 50.6334 41.473 50.37 40.81 50.37H24.62C22.1348 50.3674 19.752 49.3797 17.9938 47.6233C16.2355 45.8669 15.2453 43.4852 15.24 41V40.47C15.2426 37.9822 16.2314 35.5968 17.9896 33.8367C19.7479 32.0766 22.1322 31.0853 24.62 31.08H54.27L49.72 36.52C49.3198 37.0307 49.1338 37.677 49.2013 38.3223C49.2689 38.9676 49.5846 39.5613 50.0819 39.9781C50.5792 40.3949 51.219 40.602 51.8661 40.5557C52.5133 40.5094 53.1171 40.2133 53.55 39.73L60.93 30.93C61.4712 30.2839 61.7677 29.4679 61.7677 28.625C61.7677 27.7822 61.4712 26.9662 60.93 26.32Z" />
</svg>
