<svg xmlns="http://www.w3.org/2000/svg" width="27" height="25" viewBox="0 0 27 25">
  <path fill="#FFF" d="M26.2362168 2.26464C25.714443 2.14872 25.2011685 2.49288 25.0894426 3.03288L24.3875631 6.42416C22.1528911 2.47696 18.0511762 0 13.5556393 0 6.63242114 0 1 5.83168 1 13 1 13.55224 1.43237758 14 1.9658184 14 2.49918196 14 2.93163681 13.55224 2.93163681 13 2.93163681 6.93456 7.69752567 2 13.5556393 2 17.3747943 2 20.8583854 4.11224 22.7444355 7.47544L19.5244743 6.76096C19.0027778 6.6452 18.489426 6.98928 18.3777774 7.52928 18.2660515 8.06928 18.598293 8.60096 19.119835 8.71664L24.6470978 9.94304C24.7409754 9.96392 24.8363209 9.96992 24.930353 9.96176 25.0869701 9.94808 25.2396467 9.89488 25.3740886 9.8048 25.5891957 9.66072 25.7401724 9.43408 25.7938719 9.1748L26.9784289 3.45192C27.0900002 2.912 26.7577587 2.38048 26.2362168 2.26464zM24.9909931 11.0006208C24.4553941 11.0183589 24.0353926 11.4678788 24.0530932 12.0046109 24.1471859 14.8604394 23.1259845 17.5819099 21.1773637 19.6680776 19.2288207 21.7540118 16.5863046 22.95491 13.7365827 23.0492018 13.6178022 23.0530917 13.4996428 23.0550367 13.3813282 23.0550367 9.66295614 23.0548811 6.23757593 21.1196426 4.30308465 17.9841283L7.67606172 18.8904812C8.19372717 19.0295072 8.72591024 18.721814 8.86472036 18.2029756 9.00353047 17.684215 8.69640921 17.1509838 8.17874376 17.0117245L2.69279417 15.5377535C2.44420917 15.4710801 2.17924333 15.5059339 1.95643291 15.6347682 1.73346723 15.7636026 1.57082338 15.9760704 1.50413553 16.2251813L.0333538723 21.7228924C-.105456241 22.241653.201665017 22.7748842.719330474 22.9140657.80356368 22.9367051.888029789 22.9475969.97125375 22.9475969 1.39963977 22.9475969 1.79177058 22.6609871 1.90798911 22.2266379L2.73471669 19.1367136C5.03455494 22.7657817 9.03776719 25.0001556 13.3808624 25 13.5203712 25 13.6606564 24.9977438 13.8007086 24.9930759 17.1685618 24.8815128 20.2915565 23.4624676 22.5944225 20.9971877 24.8972885 18.5319078 26.1041912 15.315483 25.9929412 11.9404271 25.9753182 11.4037728 25.5265144 10.9815602 24.9909931 11.0006208z"/>
</svg>
