<svg width="22" height="12" viewBox="0 0 42 28" xmlns="http://www.w3.org/2000/svg">
<path d="M15.13 27.23C14.4985 27.2322 13.8902 26.9924 13.43 26.56L1.79998 15.78C1.31331 15.3291 1.02568 14.7034 1.00036 14.0404C0.975042 13.3775 1.21411 12.7317 1.66498 12.245C2.11585 11.7583 2.74158 11.4707 3.40452 11.4454C4.06746 11.42 4.71331 11.6591 5.19998 12.11L15.12 21.31L37 0.729982C37.4827 0.275135 38.1263 0.0306677 38.7892 0.0503591C39.4522 0.0700504 40.0801 0.352287 40.535 0.834981C40.9898 1.31768 41.2343 1.96129 41.2146 2.62423C41.1949 3.28717 40.9127 3.91514 40.43 4.36998L16.85 26.55C16.3841 26.9873 15.769 27.2305 15.13 27.23Z"/>
</svg>
