<svg width="72" height="72" viewBox="0 0 72 72" fill="none" xmlns="http://www.w3.org/2000/svg">
<path d="M47.3801 26.07H17.8001L22.2801 20.73C22.5038 20.4803 22.6749 20.1881 22.7834 19.871C22.8919 19.5538 22.9354 19.218 22.9115 18.8836C22.8876 18.5493 22.7967 18.2231 22.6442 17.9246C22.4917 17.6261 22.2807 17.3613 22.0237 17.146C21.7668 16.9306 21.4692 16.7692 21.1487 16.6712C20.8281 16.5732 20.4911 16.5407 20.1577 16.5756C19.8243 16.6105 19.5013 16.7121 19.2079 16.8743C18.9146 17.0365 18.6569 17.2561 18.4501 17.52L11.0701 26.32C10.5316 26.9654 10.2366 27.7794 10.2366 28.62C10.2366 29.4606 10.5316 30.2745 11.0701 30.92L18.4501 39.72C18.6831 40 18.9752 40.225 19.3054 40.3789C19.6356 40.5327 19.9958 40.6117 20.3601 40.61C20.8369 40.6139 21.3048 40.4809 21.7082 40.2267C22.1116 39.9725 22.4335 39.6079 22.6357 39.1761C22.8379 38.7443 22.9119 38.2635 22.8489 37.7909C22.7858 37.3183 22.5884 36.8737 22.2801 36.51L17.7301 31.07H47.3801C49.8679 31.0753 52.2522 32.0666 54.0105 33.8267C55.7687 35.5868 56.7575 37.9721 56.7601 40.46V41C56.7575 43.4869 55.7684 45.8712 54.0098 47.6297C52.2513 49.3882 49.867 50.3773 47.3801 50.38H31.1901C30.5271 50.38 29.8912 50.6434 29.4223 51.1122C28.9535 51.5811 28.6901 52.2169 28.6901 52.88C28.6901 53.543 28.9535 54.1789 29.4223 54.6477C29.8912 55.1166 30.5271 55.38 31.1901 55.38H47.3801C51.1923 55.3747 54.8468 53.858 57.5425 51.1623C60.2381 48.4667 61.7548 44.8122 61.7601 41V40.47C61.7601 36.6543 60.2457 32.9947 57.5495 30.2947C54.8533 27.5948 51.1958 26.0753 47.3801 26.07Z"/>
</svg>
