<svg width="512px" height="512px" version="1.1" viewBox="0 0 512 512" xmlns="http://www.w3.org/2000/svg">
	<path transform="scale(1, -1) translate(0, -512)" glyph-name="toastwarning" unicode="&#48;" d="M246 341c-9 0-15-6-15-15l0-111c0-9 6-15 15-15 9 0 15 6 15 15l0 111c0 9-6 15-15 15z m12-198c-7 6-17 6-23 0-4-3-4-8-4-11 0-6 0-9 4-11 3-3 9-3 13-3 3 0 10 0 6 3 4 2 7 8 7 11 0 6 0 8-3 11z m238 2l-177 307c-12 24-38 39-65 39-27 0-51-15-66-39l-177-307c-15-24-15-54 0-78 12-24 39-39 66-39l353 0c30 0 54 15 66 39 15 24 15 54 0 78z m-24-66c-6-15-21-24-39-24l-356 0c-15 0-30 9-39 24-9 15-9 33 0 48l177 307c6 15 21 24 39 24 18 0 33-9 41-24l177-307c9-15 9-33 0-48z" />
</svg>
